# xmcd
#
# Track frame offsets: 
#        150
#        22526
#        45986
#        64504
#        101770
#        119556
#        151376
#        180004
#
# Disc length: 2640 seconds
#
# Revision: 0
# Processed by: cddbd v1.5.2PL0 Copyright (c) Steve Scherf et al.
# Submitted via: ExactAudioCopy v0.99pb5
#
DISCID=500a4e08
DTITLE=Matt Leddy And The Meatcutters - Texas Tomfoolery 
DYEAR=2004
DGENRE=Blues
TTITLE0=Just A Little Bit
TTITLE1=T-Bone Shuffle
TTITLE2=Shaky Ground
TTITLE3=Don't Cut Off Your Hair
TTITLE4=I Ain't Drunk
TTITLE5=Parchman Farm
TTITLE6=Mean Old World
TTITLE7=Boom Boom
EXTD=
EXTT0=
EXTT1=
EXTT2=
EXTT3=
EXTT4=
EXTT5=
EXTT6=
EXTT7=
PLAYORDER=
